<?xml version="1.0" encoding="UTF-8" standalone="no"?><!DOCTYPE svg PUBLIC "-//W3C//DTD SVG 1.1//EN" "http://www.w3.org/Graphics/SVG/1.1/DTD/svg11.dtd"><svg width="100%" height="100%" viewBox="0 0 360 120" version="1.1" xmlns="http://www.w3.org/2000/svg" xmlns:xlink="http://www.w3.org/1999/xlink" xml:space="preserve" xmlns:serif="http://www.serif.com/" style="fill-rule:evenodd;clip-rule:evenodd;stroke-linejoin:round;stroke-miterlimit:2;"><rect id="Artboard1" x="0" y="0" width="360" height="120" style="fill:none;"/><g id="Artboard11" serif:id="Artboard1"><g><path d="M64.116,53.235l0,11.22c0,3.096 -2.514,5.61 -5.61,5.61l-11.22,0c-3.096,0 -5.61,-2.514 -5.61,-5.61l0,-11.22c0,-3.096 2.514,-5.61 5.61,-5.61l11.22,0c3.096,0 5.61,2.514 5.61,5.61Z" style="fill:url(#_Linear1);"/><g><circle cx="52.896" cy="55.105" r="2.992" style="fill:#fafafa;"/><path d="M57.384,60.715c0,0.619 -0.503,1.122 -1.122,1.122l-6.732,0c-0.619,0 -1.122,-0.503 -1.122,-1.122c0,-0.619 0.503,-1.122 1.122,-1.122l6.732,0c0.619,0 1.122,0.503 1.122,1.122Z" style="fill:#fafafa;"/><path d="M58.88,64.455c0,0.619 -0.503,1.122 -1.122,1.122l-9.724,0c-0.619,0 -1.122,-0.503 -1.122,-1.122c0,-0.619 0.503,-1.122 1.122,-1.122l9.724,0c0.619,0 1.122,0.503 1.122,1.122Z" style="fill:#fafafa;"/></g></g><g><path d="M82.585,52.643l4.653,0l0,15.106l-4.381,0l-0.302,-1.692c-0.463,0.624 -1.123,1.128 -1.979,1.511c-0.856,0.383 -1.737,0.574 -2.644,0.574c-1.712,0 -3.067,-0.539 -4.064,-1.616c-0.997,-1.078 -1.496,-2.543 -1.496,-4.396l0,-9.487l4.653,0l0,7.795c0,1.229 0.222,2.13 0.665,2.704c0.443,0.574 1.138,0.861 2.085,0.861c1.007,0 1.727,-0.277 2.16,-0.831c0.433,-0.554 0.65,-1.445 0.65,-2.674l0,-7.855Z" style="fill:#fafafa;fill-rule:nonzero;"/><path d="M90.743,75.001l0,-22.358l4.381,0l0.242,1.843c0.423,-0.705 1.078,-1.269 1.964,-1.692c0.886,-0.423 1.863,-0.634 2.931,-0.634c1.41,0 2.649,0.312 3.716,0.937c1.068,0.624 1.903,1.516 2.508,2.674c0.604,1.158 0.906,2.553 0.906,4.184c0,1.591 -0.277,3.006 -0.831,4.245c-0.554,1.239 -1.36,2.211 -2.417,2.916c-1.057,0.705 -2.341,1.057 -3.852,1.057c-1.047,0 -2.014,-0.181 -2.9,-0.544c-0.886,-0.363 -1.551,-0.826 -1.994,-1.39l0,8.762l-4.653,0Zm4.683,-14.804c0,0.745 0.156,1.405 0.468,1.979c0.312,0.574 0.745,1.017 1.299,1.329c0.554,0.312 1.193,0.468 1.919,0.468c0.745,0 1.385,-0.161 1.919,-0.483c0.534,-0.322 0.947,-0.765 1.239,-1.329c0.292,-0.564 0.438,-1.219 0.438,-1.964c0,-0.745 -0.146,-1.4 -0.438,-1.964c-0.292,-0.564 -0.705,-1.007 -1.239,-1.329c-0.534,-0.322 -1.173,-0.483 -1.919,-0.483c-0.725,0 -1.365,0.156 -1.919,0.468c-0.554,0.312 -0.987,0.75 -1.299,1.314c-0.312,0.564 -0.468,1.229 -0.468,1.994Z" style="fill:#fafafa;fill-rule:nonzero;"/><path d="M108.508,52.643l10.393,0l0,3.867l-10.393,0l0,-3.867Zm7.523,15.106l-4.653,0l0,-19.789l4.653,0l0,19.789Z" style="fill:#fafafa;fill-rule:nonzero;"/><path d="M120.986,67.75l0,-15.106l4.653,0l0,15.106l-4.653,0Zm2.296,-17.463c-0.745,0 -1.375,-0.257 -1.888,-0.77c-0.514,-0.514 -0.77,-1.143 -0.77,-1.888c0,-0.745 0.257,-1.37 0.77,-1.873c0.514,-0.504 1.143,-0.755 1.888,-0.755c0.725,0 1.344,0.252 1.858,0.755c0.514,0.504 0.77,1.128 0.77,1.873c0,0.745 -0.257,1.375 -0.77,1.888c-0.514,0.514 -1.133,0.77 -1.858,0.77Z" style="fill:#fafafa;fill-rule:nonzero;"/><path d="M128.328,59.955c0,-1.631 0.302,-3.026 0.906,-4.184c0.604,-1.158 1.445,-2.049 2.523,-2.674c1.078,-0.624 2.311,-0.937 3.701,-0.937c1.068,0 2.044,0.211 2.931,0.634c0.886,0.423 1.541,0.987 1.964,1.692l0.242,-1.843l4.381,0l0,22.358l-4.653,0l0,-8.762c-0.443,0.564 -1.108,1.027 -1.994,1.39c-0.886,0.363 -1.853,0.544 -2.9,0.544c-1.491,0 -2.77,-0.352 -3.837,-1.057c-1.068,-0.705 -1.878,-1.677 -2.432,-2.916c-0.554,-1.239 -0.831,-2.654 -0.831,-4.245Zm4.683,0.242c0,0.745 0.146,1.4 0.438,1.964c0.292,0.564 0.71,1.007 1.254,1.329c0.544,0.322 1.178,0.483 1.903,0.483c0.725,0 1.365,-0.156 1.919,-0.468c0.554,-0.312 0.987,-0.755 1.299,-1.329c0.312,-0.574 0.468,-1.234 0.468,-1.979c0,-0.765 -0.156,-1.43 -0.468,-1.994c-0.312,-0.564 -0.745,-1.002 -1.299,-1.314c-0.554,-0.312 -1.193,-0.468 -1.919,-0.468c-0.725,0 -1.36,0.161 -1.903,0.483c-0.544,0.322 -0.962,0.765 -1.254,1.329c-0.292,0.564 -0.438,1.219 -0.438,1.964Z" style="fill:#fafafa;fill-rule:nonzero;"/></g><g><g><path d="M120.309,82.679l0.705,0c0.006,0.084 0.04,0.15 0.101,0.198c0.061,0.048 0.148,0.072 0.261,0.072c0.116,0 0.201,-0.019 0.256,-0.058c0.055,-0.039 0.082,-0.089 0.082,-0.15c0,-0.035 -0.014,-0.071 -0.041,-0.106c-0.027,-0.035 -0.086,-0.063 -0.176,-0.082l-0.444,-0.097c-0.222,-0.048 -0.388,-0.126 -0.497,-0.234c-0.109,-0.108 -0.164,-0.268 -0.164,-0.48c0,-0.167 0.044,-0.31 0.133,-0.427c0.089,-0.118 0.208,-0.208 0.36,-0.27c0.151,-0.063 0.324,-0.094 0.517,-0.094c0.187,0 0.352,0.034 0.495,0.101c0.143,0.068 0.255,0.163 0.336,0.285c0.08,0.122 0.121,0.266 0.121,0.43l-0.705,0c0,-0.084 -0.024,-0.151 -0.072,-0.2c-0.048,-0.05 -0.118,-0.075 -0.208,-0.075c-0.084,0 -0.151,0.02 -0.2,0.06c-0.05,0.04 -0.075,0.093 -0.075,0.157c0,0.103 0.087,0.174 0.261,0.212l0.449,0.097c0.2,0.042 0.352,0.113 0.456,0.215c0.105,0.101 0.157,0.249 0.157,0.442c0,0.171 -0.045,0.319 -0.135,0.444c-0.09,0.126 -0.216,0.221 -0.377,0.287c-0.161,0.066 -0.346,0.099 -0.555,0.099c-0.319,0 -0.571,-0.076 -0.758,-0.229c-0.187,-0.153 -0.28,-0.352 -0.28,-0.596Z" style="fill:#fafafa;fill-rule:nonzero;"/><path d="M122.549,81.027l1.661,0l0,0.618l-1.661,0l0,-0.618Zm1.202,2.414l-0.744,0l0,-3.163l0.744,0l0,3.163Z" style="fill:#fafafa;fill-rule:nonzero;"/><path d="M125.249,83.505c-0.254,0 -0.456,-0.07 -0.606,-0.21c-0.15,-0.14 -0.225,-0.328 -0.225,-0.563c0,-0.222 0.076,-0.399 0.229,-0.531c0.153,-0.132 0.374,-0.209 0.664,-0.232l0.676,-0.053l0,-0.039c0,-0.08 -0.016,-0.147 -0.048,-0.2c-0.032,-0.053 -0.078,-0.093 -0.138,-0.121c-0.06,-0.027 -0.134,-0.041 -0.225,-0.041c-0.158,0 -0.278,0.029 -0.36,0.087c-0.082,0.058 -0.123,0.142 -0.123,0.251l-0.618,0c0,-0.184 0.047,-0.343 0.14,-0.478c0.093,-0.135 0.226,-0.24 0.398,-0.314c0.172,-0.074 0.373,-0.111 0.601,-0.111c0.235,0 0.434,0.042 0.596,0.126c0.163,0.084 0.287,0.206 0.372,0.367c0.085,0.161 0.128,0.357 0.128,0.589l0,1.41l-0.657,0l-0.048,-0.319c-0.039,0.109 -0.13,0.2 -0.273,0.273c-0.143,0.072 -0.305,0.109 -0.485,0.109Zm0.261,-0.551c0.142,0 0.258,-0.035 0.348,-0.104c0.09,-0.069 0.135,-0.173 0.135,-0.311l0,-0.13l-0.377,0.034c-0.161,0.013 -0.274,0.039 -0.34,0.08c-0.066,0.04 -0.099,0.099 -0.099,0.176c0,0.087 0.027,0.151 0.082,0.193c0.055,0.042 0.138,0.063 0.251,0.063Z" style="fill:#fafafa;fill-rule:nonzero;"/><path d="M127.088,82.225c0,-0.248 0.053,-0.468 0.159,-0.659c0.106,-0.192 0.252,-0.342 0.437,-0.452c0.185,-0.109 0.398,-0.164 0.64,-0.164c0.357,0 0.647,0.092 0.869,0.275c0.222,0.184 0.344,0.433 0.367,0.748l-0.748,0c-0.026,-0.122 -0.076,-0.212 -0.152,-0.27c-0.076,-0.058 -0.178,-0.087 -0.307,-0.087c-0.103,0 -0.194,0.025 -0.273,0.075c-0.079,0.05 -0.139,0.12 -0.181,0.21c-0.042,0.09 -0.063,0.198 -0.063,0.324c0,0.129 0.02,0.239 0.06,0.331c0.04,0.092 0.098,0.162 0.174,0.21c0.076,0.048 0.167,0.072 0.273,0.072c0.132,0 0.237,-0.03 0.316,-0.089c0.079,-0.06 0.13,-0.149 0.152,-0.268l0.748,0c-0.016,0.203 -0.078,0.381 -0.186,0.534c-0.108,0.153 -0.25,0.273 -0.427,0.36c-0.177,0.087 -0.378,0.13 -0.604,0.13c-0.254,0 -0.476,-0.053 -0.664,-0.159c-0.188,-0.106 -0.334,-0.255 -0.437,-0.447c-0.103,-0.192 -0.155,-0.416 -0.155,-0.674Z" style="fill:#fafafa;fill-rule:nonzero;"/><path d="M130.686,83.442l-0.744,0l0,-3.641l0.744,0l0,2.096l0.782,-0.869l0.932,0l-0.908,0.956l0.879,1.458l-0.86,0l-0.541,-0.903l-0.285,0.299l0,0.604Z" style="fill:#fafafa;fill-rule:nonzero;"/><path d="M132.68,84.601l0,-3.573l0.7,0l0.039,0.295c0.068,-0.113 0.172,-0.203 0.314,-0.27c0.142,-0.068 0.298,-0.101 0.468,-0.101c0.225,0 0.423,0.05 0.594,0.15c0.171,0.1 0.304,0.242 0.401,0.427c0.097,0.185 0.145,0.408 0.145,0.669c0,0.254 -0.044,0.48 -0.133,0.678c-0.089,0.198 -0.217,0.353 -0.386,0.466c-0.169,0.113 -0.374,0.169 -0.616,0.169c-0.167,0 -0.322,-0.029 -0.464,-0.087c-0.142,-0.058 -0.248,-0.132 -0.319,-0.222l0,1.4l-0.744,0Zm0.748,-2.366c0,0.119 0.025,0.225 0.075,0.316c0.05,0.092 0.119,0.163 0.208,0.212c0.089,0.05 0.191,0.075 0.307,0.075c0.119,0 0.221,-0.026 0.307,-0.077c0.085,-0.052 0.151,-0.122 0.198,-0.212c0.047,-0.09 0.07,-0.195 0.07,-0.314c0,-0.119 -0.023,-0.224 -0.07,-0.314c-0.047,-0.09 -0.113,-0.161 -0.198,-0.212c-0.085,-0.052 -0.188,-0.077 -0.307,-0.077c-0.116,0 -0.218,0.025 -0.307,0.075c-0.089,0.05 -0.158,0.12 -0.208,0.21c-0.05,0.09 -0.075,0.196 -0.075,0.319Z" style="fill:#fafafa;fill-rule:nonzero;"/><rect x="135.747" y="79.801" width="0.744" height="3.641" style="fill:#fafafa;fill-rule:nonzero;"/><path d="M137.756,83.505c-0.254,0 -0.456,-0.07 -0.606,-0.21c-0.15,-0.14 -0.225,-0.328 -0.225,-0.563c0,-0.222 0.076,-0.399 0.229,-0.531c0.153,-0.132 0.374,-0.209 0.664,-0.232l0.676,-0.053l0,-0.039c0,-0.08 -0.016,-0.147 -0.048,-0.2c-0.032,-0.053 -0.078,-0.093 -0.138,-0.121c-0.06,-0.027 -0.134,-0.041 -0.225,-0.041c-0.158,0 -0.278,0.029 -0.36,0.087c-0.082,0.058 -0.123,0.142 -0.123,0.251l-0.618,0c0,-0.184 0.047,-0.343 0.14,-0.478c0.093,-0.135 0.226,-0.24 0.398,-0.314c0.172,-0.074 0.373,-0.111 0.601,-0.111c0.235,0 0.434,0.042 0.596,0.126c0.163,0.084 0.287,0.206 0.372,0.367c0.085,0.161 0.128,0.357 0.128,0.589l0,1.41l-0.657,0l-0.048,-0.319c-0.039,0.109 -0.13,0.2 -0.273,0.273c-0.143,0.072 -0.305,0.109 -0.485,0.109Zm0.261,-0.551c0.142,0 0.258,-0.035 0.348,-0.104c0.09,-0.069 0.135,-0.173 0.135,-0.311l0,-0.13l-0.377,0.034c-0.161,0.013 -0.274,0.039 -0.34,0.08c-0.066,0.04 -0.099,0.099 -0.099,0.176c0,0.087 0.027,0.151 0.082,0.193c0.055,0.042 0.138,0.063 0.251,0.063Z" style="fill:#fafafa;fill-rule:nonzero;"/><path d="M140.47,83.442l-0.744,0l0,-2.414l0.7,0l0.048,0.251c0.074,-0.103 0.176,-0.184 0.307,-0.241c0.13,-0.058 0.274,-0.087 0.432,-0.087c0.287,0 0.509,0.088 0.669,0.263c0.159,0.175 0.239,0.421 0.239,0.736l0,1.492l-0.744,0l0,-1.313c0,-0.151 -0.039,-0.273 -0.116,-0.365c-0.077,-0.092 -0.18,-0.138 -0.309,-0.138c-0.148,0 -0.266,0.044 -0.353,0.133c-0.087,0.089 -0.13,0.208 -0.13,0.36l0,1.323Z" style="fill:#fafafa;fill-rule:nonzero;"/><path d="M143.748,83.505c-0.241,0 -0.456,-0.055 -0.645,-0.164c-0.188,-0.109 -0.336,-0.26 -0.444,-0.452c-0.108,-0.192 -0.162,-0.411 -0.162,-0.659c0,-0.251 0.052,-0.472 0.157,-0.664c0.105,-0.192 0.25,-0.342 0.437,-0.452c0.187,-0.109 0.401,-0.164 0.642,-0.164c0.254,0 0.473,0.052 0.657,0.157c0.184,0.105 0.325,0.253 0.425,0.444c0.1,0.192 0.15,0.419 0.15,0.683l0,0.188l-2.076,0.01l0.01,-0.459l1.328,0c0,-0.129 -0.043,-0.231 -0.13,-0.307c-0.087,-0.076 -0.206,-0.113 -0.357,-0.113c-0.126,0 -0.228,0.024 -0.307,0.072c-0.079,0.048 -0.138,0.123 -0.176,0.225c-0.039,0.101 -0.058,0.231 -0.058,0.389c0,0.225 0.046,0.392 0.138,0.5c0.092,0.108 0.234,0.162 0.427,0.162c0.142,0 0.259,-0.024 0.353,-0.072c0.093,-0.048 0.153,-0.116 0.179,-0.203l0.681,0c-0.042,0.267 -0.174,0.48 -0.396,0.64c-0.222,0.159 -0.499,0.239 -0.831,0.239Z" style="fill:#fafafa;fill-rule:nonzero;"/></g><g><path d="M111.838,83.229l3.429,1.371l3.429,-1.371l-3.429,-1.371l-3.429,1.371Z" style="fill:#115e59;fill-rule:nonzero;"/><path d="M112.524,81.858l2.743,1.029l2.743,-1.029l-2.743,-1.029l-2.743,1.029Z" style="fill:#0d9488;fill-rule:nonzero;"/><path d="M113.21,80.658l2.057,0.857l2.057,-0.857l-2.057,-0.857l-2.057,0.857Z" style="fill:#2dd4bf;fill-rule:nonzero;"/></g><g><path d="M107.365,82.911l-0.317,0l0,-2.098l0.343,0l0,0.908c0.045,-0.078 0.111,-0.138 0.198,-0.181c0.087,-0.043 0.184,-0.065 0.291,-0.065c0.132,0 0.246,0.032 0.341,0.095c0.095,0.064 0.169,0.152 0.22,0.264c0.051,0.112 0.077,0.242 0.077,0.39c0,0.141 -0.027,0.266 -0.082,0.375c-0.055,0.109 -0.132,0.194 -0.231,0.255c-0.099,0.061 -0.216,0.091 -0.349,0.091c-0.103,0 -0.197,-0.022 -0.281,-0.067c-0.084,-0.045 -0.146,-0.107 -0.188,-0.186l-0.022,0.218Zm0.028,-0.702c0,0.083 0.016,0.157 0.048,0.221c0.032,0.064 0.078,0.114 0.137,0.15c0.059,0.036 0.128,0.053 0.208,0.053c0.081,0 0.15,-0.018 0.207,-0.054c0.057,-0.036 0.102,-0.086 0.132,-0.15c0.031,-0.064 0.046,-0.137 0.046,-0.22c0,-0.083 -0.015,-0.156 -0.046,-0.22c-0.031,-0.063 -0.075,-0.113 -0.132,-0.15c-0.057,-0.037 -0.126,-0.055 -0.207,-0.055c-0.079,0 -0.149,0.018 -0.208,0.054c-0.059,0.036 -0.105,0.085 -0.137,0.149c-0.032,0.063 -0.048,0.137 -0.048,0.222Z" style="fill:#fafafa;fill-rule:nonzero;"/><path d="M108.946,81.519l0.452,1.284l-0.186,0.354l-0.632,-1.638l0.366,0Zm-0.329,2.037l0,-0.286l0.206,0c0.045,0 0.085,-0.005 0.119,-0.015c0.034,-0.01 0.065,-0.029 0.091,-0.057c0.026,-0.028 0.05,-0.069 0.07,-0.123l0.576,-1.556l0.355,0l-0.681,1.701c-0.051,0.129 -0.116,0.223 -0.193,0.281c-0.077,0.058 -0.173,0.087 -0.287,0.087c-0.048,0 -0.092,-0.003 -0.135,-0.008c-0.042,-0.005 -0.083,-0.014 -0.121,-0.025Z" style="fill:#fafafa;fill-rule:nonzero;"/></g></g><g><path d="M261.684,57.585l-1.744,0l0,-4.852l1.697,0c0.481,0 0.903,0.102 1.265,0.307c0.362,0.205 0.646,0.49 0.851,0.856c0.205,0.366 0.307,0.79 0.307,1.273c0,0.475 -0.1,0.895 -0.3,1.258c-0.2,0.363 -0.478,0.647 -0.834,0.852c-0.356,0.205 -0.77,0.307 -1.242,0.307Zm-0.895,-4.461l0,4.078l-0.402,-0.402l1.223,0c0.323,0 0.601,-0.066 0.833,-0.197c0.233,-0.132 0.412,-0.32 0.537,-0.565c0.125,-0.245 0.188,-0.535 0.188,-0.87c0,-0.343 -0.065,-0.638 -0.194,-0.884c-0.129,-0.246 -0.314,-0.436 -0.552,-0.568c-0.239,-0.133 -0.525,-0.199 -0.859,-0.199l-1.176,0l0.402,-0.393Z" style="fill:#116843;fill-rule:nonzero;"/><path d="M264.541,55.94c0,-0.342 0.076,-0.642 0.227,-0.901c0.151,-0.259 0.359,-0.462 0.625,-0.608c0.265,-0.146 0.567,-0.219 0.905,-0.219c0.339,0 0.641,0.073 0.904,0.219c0.263,0.146 0.47,0.349 0.621,0.608c0.151,0.259 0.227,0.56 0.227,0.901c0,0.34 -0.076,0.64 -0.227,0.898c-0.151,0.258 -0.358,0.461 -0.621,0.607c-0.263,0.146 -0.564,0.219 -0.904,0.219c-0.338,0 -0.64,-0.073 -0.905,-0.219c-0.265,-0.146 -0.474,-0.348 -0.625,-0.607c-0.151,-0.258 -0.227,-0.558 -0.227,-0.898Zm0.814,-0.005c0,0.199 0.04,0.374 0.121,0.525c0.081,0.151 0.191,0.269 0.332,0.353c0.141,0.084 0.304,0.126 0.49,0.126c0.186,0 0.349,-0.042 0.49,-0.126c0.141,-0.084 0.251,-0.201 0.33,-0.353c0.079,-0.151 0.118,-0.326 0.118,-0.525c0,-0.2 -0.039,-0.375 -0.118,-0.524c-0.079,-0.149 -0.189,-0.266 -0.33,-0.35c-0.141,-0.084 -0.304,-0.126 -0.49,-0.126c-0.186,0 -0.349,0.042 -0.49,0.126c-0.141,0.084 -0.251,0.2 -0.332,0.35c-0.081,0.149 -0.121,0.324 -0.121,0.524Z" style="fill:#116843;fill-rule:nonzero;"/><path d="M269.263,57.585l-1.067,-3.279l0.846,0l0.429,1.407c0.039,0.128 0.075,0.263 0.109,0.405c0.034,0.141 0.065,0.29 0.093,0.444c0.021,-0.108 0.042,-0.205 0.063,-0.291c0.021,-0.087 0.044,-0.174 0.07,-0.262c0.026,-0.088 0.056,-0.187 0.09,-0.296l0.452,-1.407l0.828,0l0.433,1.407c0.011,0.033 0.027,0.086 0.045,0.158c0.019,0.072 0.04,0.15 0.063,0.234c0.023,0.084 0.044,0.167 0.063,0.249c0.019,0.082 0.034,0.15 0.045,0.206c0.017,-0.084 0.039,-0.179 0.065,-0.285c0.026,-0.106 0.053,-0.209 0.082,-0.309c0.029,-0.1 0.053,-0.184 0.072,-0.253l0.44,-1.407l0.851,0l-1.134,3.279l-0.758,0l-0.45,-1.422c-0.067,-0.215 -0.119,-0.399 -0.158,-0.553c-0.038,-0.154 -0.064,-0.272 -0.077,-0.353c-0.016,0.077 -0.042,0.183 -0.078,0.318c-0.036,0.134 -0.095,0.335 -0.177,0.602l-0.45,1.408l-0.791,0Z" style="fill:#116843;fill-rule:nonzero;"/><path d="M274.639,57.585l-0.807,0l0,-3.279l0.747,0l0.066,0.427c0.103,-0.165 0.248,-0.294 0.434,-0.387c0.187,-0.092 0.392,-0.138 0.615,-0.138c0.411,0 0.722,0.121 0.931,0.363c0.21,0.242 0.315,0.574 0.315,0.997l0,2.017l-0.807,0l0,-1.827c0,-0.272 -0.063,-0.476 -0.188,-0.612c-0.125,-0.136 -0.293,-0.204 -0.504,-0.204c-0.251,0 -0.448,0.079 -0.59,0.238c-0.142,0.159 -0.213,0.372 -0.213,0.638l0,1.767Z" style="fill:#116843;fill-rule:nonzero;"/><path d="M277.413,54.305l2.076,0l0,0.674l-2.076,0l0,-0.674Zm1.442,3.279l-0.807,0l0,-4.302l0.807,0l0,4.302Z" style="fill:#116843;fill-rule:nonzero;"/><path d="M280.001,57.585l0,-3.279l0.807,0l0,3.279l-0.807,0Zm0.399,-3.934c-0.137,0 -0.254,-0.048 -0.349,-0.143c-0.096,-0.096 -0.143,-0.211 -0.143,-0.347c0,-0.137 0.048,-0.253 0.143,-0.348c0.096,-0.095 0.212,-0.142 0.349,-0.142c0.134,0 0.249,0.047 0.345,0.142c0.096,0.095 0.143,0.211 0.143,0.348c0,0.136 -0.048,0.252 -0.143,0.347c-0.096,0.096 -0.21,0.143 -0.345,0.143Z" style="fill:#116843;fill-rule:nonzero;"/><path d="M282.458,57.585l-0.807,0l0,-3.279l0.743,0l0.097,0.585l-0.092,-0.084c0.066,-0.159 0.188,-0.299 0.364,-0.419c0.177,-0.12 0.397,-0.18 0.663,-0.18c0.291,0 0.528,0.075 0.711,0.226c0.183,0.151 0.31,0.349 0.381,0.596l-0.135,0c0.049,-0.247 0.174,-0.445 0.376,-0.596c0.202,-0.151 0.446,-0.226 0.733,-0.226c0.399,0 0.704,0.111 0.917,0.333c0.212,0.222 0.319,0.522 0.319,0.9l0,2.145l-0.803,0l0,-1.933c0,-0.233 -0.058,-0.411 -0.174,-0.532c-0.116,-0.122 -0.271,-0.183 -0.466,-0.183c-0.128,0 -0.244,0.028 -0.348,0.085c-0.104,0.057 -0.187,0.143 -0.249,0.26c-0.062,0.117 -0.093,0.265 -0.093,0.446l0,1.857l-0.805,0l0,-1.935c0,-0.233 -0.057,-0.41 -0.172,-0.529c-0.115,-0.119 -0.269,-0.179 -0.463,-0.179c-0.128,0 -0.244,0.028 -0.35,0.085c-0.105,0.057 -0.189,0.143 -0.251,0.259c-0.062,0.116 -0.093,0.263 -0.093,0.441l0,1.859Z" style="fill:#116843;fill-rule:nonzero;"/><path d="M288.993,57.669c-0.324,0 -0.611,-0.074 -0.861,-0.221c-0.25,-0.147 -0.446,-0.35 -0.589,-0.61c-0.142,-0.259 -0.213,-0.558 -0.213,-0.896c0,-0.341 0.069,-0.642 0.208,-0.902c0.139,-0.26 0.331,-0.464 0.578,-0.612c0.247,-0.148 0.531,-0.222 0.852,-0.222c0.328,0 0.612,0.069 0.852,0.207c0.24,0.138 0.425,0.332 0.556,0.582c0.131,0.25 0.197,0.546 0.197,0.888l0,0.245l-2.815,0.009l0.013,-0.517l1.997,0c0,-0.227 -0.072,-0.409 -0.215,-0.545c-0.143,-0.136 -0.337,-0.204 -0.581,-0.204c-0.191,0 -0.352,0.04 -0.481,0.119c-0.13,0.08 -0.228,0.198 -0.295,0.356c-0.067,0.158 -0.101,0.353 -0.101,0.584c0,0.354 0.077,0.621 0.23,0.802c0.153,0.181 0.381,0.271 0.682,0.271c0.221,0 0.403,-0.041 0.546,-0.124c0.143,-0.083 0.236,-0.201 0.279,-0.355l0.749,0c-0.068,0.355 -0.243,0.635 -0.525,0.839c-0.282,0.204 -0.636,0.306 -1.063,0.306Z" style="fill:#116843;fill-rule:nonzero;"/><path d="M292.685,54.305l2.076,0l0,0.674l-2.076,0l0,-0.674Zm1.442,3.279l-0.807,0l0,-4.302l0.807,0l0,4.302Z" style="fill:#116843;fill-rule:nonzero;"/><path d="M296.226,57.669c-0.347,0 -0.621,-0.093 -0.821,-0.28c-0.2,-0.187 -0.301,-0.433 -0.301,-0.741c0,-0.301 0.105,-0.542 0.316,-0.722c0.211,-0.18 0.511,-0.286 0.902,-0.317l0.979,-0.077l0,-0.073c0,-0.149 -0.028,-0.27 -0.084,-0.361c-0.056,-0.092 -0.134,-0.159 -0.234,-0.201c-0.1,-0.042 -0.218,-0.063 -0.355,-0.063c-0.241,0 -0.426,0.047 -0.554,0.142c-0.129,0.095 -0.193,0.23 -0.193,0.406l-0.686,0c0,-0.239 0.061,-0.446 0.182,-0.622c0.121,-0.176 0.293,-0.312 0.516,-0.409c0.223,-0.096 0.481,-0.145 0.776,-0.145c0.295,0 0.549,0.052 0.76,0.156c0.212,0.104 0.375,0.259 0.49,0.465c0.115,0.206 0.173,0.462 0.173,0.767l0,1.99l-0.706,0l-0.064,-0.486c-0.07,0.17 -0.206,0.308 -0.408,0.413c-0.202,0.105 -0.43,0.157 -0.686,0.157Zm0.263,-0.611c0.249,0 0.448,-0.07 0.595,-0.211c0.148,-0.141 0.222,-0.336 0.222,-0.586l0,-0.177l-0.683,0.058c-0.252,0.02 -0.431,0.071 -0.538,0.152c-0.107,0.081 -0.16,0.188 -0.16,0.321c0,0.149 0.049,0.26 0.147,0.333c0.098,0.073 0.237,0.11 0.417,0.11Z" style="fill:#116843;fill-rule:nonzero;"/><rect x="298.9" y="52.643" width="0.807" height="4.941" style="fill:#116843;fill-rule:nonzero;"/><path d="M301.372,57.585l-0.807,0l0,-4.941l0.807,0l0,3.034l1.273,-1.372l1.014,0l-1.244,1.302l1.22,1.977l-0.933,0l-0.851,-1.381l-0.479,0.501l0,0.88Z" style="fill:#116843;fill-rule:nonzero;"/><path d="M303.874,56.592l0.768,0c0.006,0.142 0.06,0.254 0.162,0.336c0.102,0.082 0.244,0.123 0.425,0.123c0.193,0 0.338,-0.036 0.437,-0.107c0.099,-0.071 0.149,-0.165 0.149,-0.282c0,-0.081 -0.026,-0.151 -0.077,-0.212c-0.052,-0.061 -0.152,-0.108 -0.301,-0.143l-0.589,-0.135c-0.295,-0.068 -0.515,-0.175 -0.66,-0.323c-0.145,-0.148 -0.218,-0.353 -0.218,-0.616c0,-0.214 0.056,-0.398 0.169,-0.551c0.112,-0.153 0.266,-0.27 0.462,-0.353c0.195,-0.082 0.419,-0.123 0.669,-0.123c0.246,0 0.462,0.044 0.648,0.131c0.186,0.088 0.331,0.211 0.435,0.37c0.105,0.159 0.158,0.347 0.159,0.563l-0.768,0c-0.003,-0.143 -0.048,-0.255 -0.136,-0.337c-0.088,-0.082 -0.212,-0.123 -0.37,-0.123c-0.158,0 -0.281,0.035 -0.369,0.105c-0.089,0.07 -0.133,0.165 -0.133,0.285c0,0.183 0.141,0.307 0.422,0.374l0.592,0.135c0.276,0.062 0.483,0.162 0.622,0.3c0.139,0.139 0.209,0.334 0.209,0.586c0,0.219 -0.058,0.409 -0.174,0.571c-0.116,0.162 -0.277,0.286 -0.484,0.372c-0.207,0.086 -0.446,0.129 -0.718,0.129c-0.408,0 -0.731,-0.099 -0.972,-0.297c-0.24,-0.198 -0.36,-0.458 -0.36,-0.78Z" style="fill:#116843;fill-rule:nonzero;"/><path d="M307.721,57.667c-0.147,0 -0.273,-0.052 -0.379,-0.155c-0.106,-0.103 -0.158,-0.227 -0.158,-0.371c0,-0.148 0.053,-0.274 0.158,-0.377c0.106,-0.103 0.232,-0.155 0.379,-0.155c0.145,0 0.271,0.052 0.377,0.155c0.106,0.103 0.16,0.229 0.16,0.377c0,0.144 -0.053,0.267 -0.16,0.371c-0.106,0.103 -0.232,0.155 -0.377,0.155Z" style="fill:#116843;fill-rule:nonzero;"/><path d="M259.907,64.774l0,-3.081l0.848,0l0,3.028c0,0.35 0.093,0.617 0.278,0.803c0.186,0.186 0.45,0.278 0.794,0.278c0.344,0 0.609,-0.094 0.796,-0.283c0.187,-0.189 0.28,-0.455 0.28,-0.798l0,-3.028l0.848,0l0,3.081c0,0.378 -0.078,0.704 -0.234,0.981c-0.156,0.276 -0.378,0.491 -0.667,0.643c-0.289,0.152 -0.63,0.228 -1.023,0.228c-0.391,0 -0.731,-0.075 -1.019,-0.225c-0.288,-0.15 -0.51,-0.364 -0.667,-0.643c-0.157,-0.279 -0.235,-0.607 -0.235,-0.984Z" style="fill:#116843;fill-rule:nonzero;"/><path d="M264.676,68.065l0,-4.799l0.747,0l0.051,0.498c0.101,-0.191 0.252,-0.338 0.454,-0.441c0.202,-0.104 0.426,-0.155 0.673,-0.155c0.311,0 0.581,0.07 0.811,0.211c0.229,0.141 0.408,0.338 0.535,0.591c0.127,0.254 0.191,0.553 0.191,0.898c0,0.339 -0.06,0.642 -0.18,0.908c-0.12,0.266 -0.293,0.476 -0.521,0.629c-0.228,0.153 -0.505,0.229 -0.831,0.229c-0.246,0 -0.469,-0.047 -0.669,-0.141c-0.2,-0.094 -0.351,-0.223 -0.454,-0.387l0,1.959l-0.807,0Zm0.814,-3.159c0,0.194 0.038,0.367 0.114,0.518c0.076,0.151 0.183,0.269 0.322,0.354c0.139,0.085 0.302,0.127 0.489,0.127c0.19,0 0.353,-0.043 0.488,-0.129c0.135,-0.086 0.239,-0.204 0.312,-0.354c0.073,-0.15 0.109,-0.322 0.109,-0.516c0,-0.196 -0.036,-0.368 -0.109,-0.518c-0.073,-0.15 -0.177,-0.267 -0.312,-0.353c-0.135,-0.085 -0.298,-0.128 -0.488,-0.128c-0.187,0 -0.35,0.042 -0.489,0.126c-0.139,0.084 -0.246,0.201 -0.322,0.35c-0.076,0.15 -0.114,0.324 -0.114,0.523Z" style="fill:#116843;fill-rule:nonzero;"/><path d="M268.419,63.267l2.076,0l0,0.674l-2.076,0l0,-0.674Zm1.442,3.279l-0.807,0l0,-4.302l0.807,0l0,4.302Z" style="fill:#116843;fill-rule:nonzero;"/><path d="M271.008,66.546l0,-3.279l0.807,0l0,3.279l-0.807,0Zm0.399,-3.934c-0.137,0 -0.254,-0.048 -0.349,-0.143c-0.096,-0.096 -0.143,-0.211 -0.143,-0.347c0,-0.137 0.048,-0.253 0.143,-0.348c0.096,-0.095 0.212,-0.142 0.349,-0.142c0.134,0 0.249,0.047 0.345,0.142c0.096,0.095 0.143,0.211 0.143,0.348c0,0.136 -0.048,0.252 -0.143,0.347c-0.096,0.096 -0.21,0.143 -0.345,0.143Z" style="fill:#116843;fill-rule:nonzero;"/><path d="M272.459,64.869c0,-0.345 0.064,-0.645 0.191,-0.898c0.127,-0.254 0.307,-0.451 0.538,-0.591c0.231,-0.141 0.501,-0.211 0.807,-0.211c0.247,0 0.471,0.052 0.673,0.155c0.202,0.104 0.353,0.251 0.454,0.441l0.051,-0.498l0.747,0l0,4.799l-0.807,0l0,-1.959c-0.103,0.164 -0.254,0.293 -0.454,0.387c-0.2,0.094 -0.423,0.141 -0.669,0.141c-0.322,0 -0.598,-0.076 -0.828,-0.229c-0.23,-0.153 -0.405,-0.362 -0.524,-0.629c-0.12,-0.266 -0.18,-0.569 -0.18,-0.908Zm0.814,0.037c0,0.194 0.036,0.366 0.109,0.516c0.073,0.15 0.178,0.268 0.314,0.354c0.137,0.086 0.299,0.129 0.486,0.129c0.189,0 0.352,-0.042 0.49,-0.127c0.138,-0.085 0.245,-0.202 0.321,-0.354c0.076,-0.151 0.114,-0.324 0.114,-0.518c0,-0.199 -0.038,-0.373 -0.114,-0.523c-0.076,-0.15 -0.183,-0.267 -0.321,-0.35c-0.138,-0.084 -0.302,-0.126 -0.49,-0.126c-0.187,0 -0.349,0.043 -0.486,0.128c-0.137,0.085 -0.242,0.203 -0.314,0.353c-0.073,0.15 -0.109,0.323 -0.109,0.518Z" style="fill:#116843;fill-rule:nonzero;"/><path d="M278.222,63.267l2.076,0l0,0.674l-2.076,0l0,-0.674Zm1.442,3.279l-0.807,0l0,-4.302l0.807,0l0,4.302Z" style="fill:#116843;fill-rule:nonzero;"/><path d="M282.244,66.63c-0.324,0 -0.611,-0.074 -0.861,-0.221c-0.25,-0.147 -0.446,-0.35 -0.589,-0.61c-0.142,-0.259 -0.213,-0.558 -0.213,-0.896c0,-0.341 0.069,-0.642 0.208,-0.902c0.139,-0.26 0.331,-0.464 0.578,-0.612c0.247,-0.148 0.531,-0.222 0.852,-0.222c0.328,0 0.612,0.069 0.852,0.207c0.24,0.138 0.425,0.332 0.556,0.582c0.131,0.25 0.197,0.546 0.197,0.888l0,0.245l-2.815,0.009l0.013,-0.517l1.997,0c0,-0.227 -0.072,-0.409 -0.215,-0.545c-0.143,-0.136 -0.337,-0.204 -0.581,-0.204c-0.191,0 -0.352,0.04 -0.481,0.119c-0.13,0.08 -0.228,0.198 -0.295,0.356c-0.067,0.158 -0.101,0.353 -0.101,0.584c0,0.354 0.077,0.621 0.23,0.802c0.153,0.181 0.381,0.271 0.682,0.271c0.221,0 0.403,-0.041 0.546,-0.124c0.143,-0.083 0.236,-0.201 0.279,-0.355l0.749,0c-0.068,0.355 -0.243,0.635 -0.525,0.839c-0.282,0.204 -0.636,0.306 -1.063,0.306Z" style="fill:#116843;fill-rule:nonzero;"/><rect x="284.485" y="61.605" width="0.807" height="4.941" style="fill:#116843;fill-rule:nonzero;"/><rect x="286.15" y="61.605" width="0.807" height="4.941" style="fill:#116843;fill-rule:nonzero;"/><path d="M287.554,65.553l0.768,0c0.006,0.142 0.06,0.254 0.162,0.336c0.102,0.082 0.244,0.123 0.425,0.123c0.193,0 0.338,-0.036 0.437,-0.107c0.099,-0.071 0.149,-0.165 0.149,-0.282c0,-0.081 -0.026,-0.151 -0.077,-0.212c-0.052,-0.061 -0.152,-0.108 -0.301,-0.143l-0.589,-0.135c-0.295,-0.068 -0.515,-0.175 -0.66,-0.323c-0.145,-0.148 -0.218,-0.353 -0.218,-0.616c0,-0.214 0.056,-0.398 0.169,-0.551c0.112,-0.153 0.266,-0.27 0.462,-0.353c0.195,-0.082 0.419,-0.123 0.669,-0.123c0.246,0 0.462,0.044 0.648,0.131c0.186,0.088 0.331,0.211 0.435,0.37c0.105,0.159 0.158,0.347 0.159,0.563l-0.768,0c-0.003,-0.143 -0.048,-0.255 -0.136,-0.337c-0.088,-0.082 -0.212,-0.123 -0.37,-0.123c-0.158,0 -0.281,0.035 -0.369,0.105c-0.089,0.07 -0.133,0.165 -0.133,0.285c0,0.183 0.141,0.307 0.422,0.374l0.592,0.135c0.276,0.062 0.483,0.162 0.622,0.3c0.139,0.139 0.209,0.334 0.209,0.586c0,0.219 -0.058,0.409 -0.174,0.571c-0.116,0.162 -0.277,0.286 -0.484,0.372c-0.207,0.086 -0.446,0.129 -0.718,0.129c-0.408,0 -0.731,-0.099 -0.972,-0.297c-0.24,-0.198 -0.36,-0.458 -0.36,-0.78Z" style="fill:#116843;fill-rule:nonzero;"/><path d="M293.151,63.267l1.065,3.025l-0.438,0.833l-1.49,-3.858l0.862,0Zm-0.774,4.799l0,-0.673l0.485,0c0.107,0 0.201,-0.012 0.281,-0.036c0.081,-0.024 0.152,-0.069 0.214,-0.134c0.062,-0.065 0.117,-0.162 0.164,-0.291l1.357,-3.665l0.837,0l-1.604,4.007c-0.121,0.305 -0.273,0.525 -0.454,0.663c-0.182,0.137 -0.407,0.206 -0.677,0.206c-0.112,0 -0.218,-0.006 -0.317,-0.019c-0.1,-0.013 -0.195,-0.032 -0.286,-0.058Z" style="fill:#116843;fill-rule:nonzero;"/><path d="M295.837,64.902c0,-0.342 0.076,-0.642 0.227,-0.901c0.151,-0.259 0.359,-0.462 0.625,-0.608c0.265,-0.146 0.567,-0.219 0.905,-0.219c0.339,0 0.641,0.073 0.904,0.219c0.263,0.146 0.47,0.349 0.621,0.608c0.151,0.259 0.227,0.56 0.227,0.901c0,0.34 -0.076,0.64 -0.227,0.898c-0.151,0.258 -0.358,0.461 -0.621,0.607c-0.263,0.146 -0.564,0.219 -0.904,0.219c-0.338,0 -0.64,-0.073 -0.905,-0.219c-0.265,-0.146 -0.474,-0.348 -0.625,-0.607c-0.151,-0.258 -0.227,-0.558 -0.227,-0.898Zm0.814,-0.005c0,0.199 0.04,0.374 0.121,0.525c0.081,0.151 0.191,0.269 0.332,0.353c0.141,0.084 0.304,0.126 0.49,0.126c0.186,0 0.349,-0.042 0.49,-0.126c0.141,-0.084 0.251,-0.201 0.33,-0.353c0.079,-0.151 0.118,-0.326 0.118,-0.525c0,-0.2 -0.039,-0.375 -0.118,-0.524c-0.079,-0.149 -0.189,-0.266 -0.33,-0.35c-0.141,-0.084 -0.304,-0.126 -0.49,-0.126c-0.186,0 -0.349,0.042 -0.49,0.126c-0.141,0.084 -0.251,0.2 -0.332,0.35c-0.081,0.149 -0.121,0.324 -0.121,0.524Z" style="fill:#116843;fill-rule:nonzero;"/><path d="M302.133,63.267l0.807,0l0,3.279l-0.747,0l-0.064,-0.437c-0.096,0.156 -0.242,0.282 -0.437,0.378c-0.195,0.096 -0.402,0.144 -0.621,0.144c-0.378,0 -0.672,-0.119 -0.884,-0.356c-0.212,-0.237 -0.318,-0.557 -0.318,-0.959l0,-2.05l0.809,0l0,1.766c0,0.311 0.06,0.535 0.18,0.673c0.12,0.137 0.293,0.206 0.518,0.206c0.256,0 0.446,-0.076 0.57,-0.228c0.124,-0.152 0.187,-0.385 0.187,-0.697l0,-1.718Z" style="fill:#116843;fill-rule:nonzero;"/><path d="M305.241,63.267l3.428,0l0,0.674l-3.428,0l0,-0.674Zm2.019,-1.628l0,0.695l-0.281,0c-0.184,0 -0.306,0.049 -0.368,0.146c-0.062,0.097 -0.092,0.226 -0.092,0.386l0,3.68l-0.807,0l0,-3.68c0,-0.297 0.048,-0.538 0.144,-0.723c0.096,-0.185 0.23,-0.321 0.401,-0.408c0.171,-0.087 0.366,-0.13 0.585,-0.13c0.065,0 0.134,0.003 0.206,0.008c0.072,0.005 0.143,0.014 0.212,0.026Zm0.597,4.907l0,-3.279l0.812,0l0,3.279l-0.812,0Zm0.406,-3.948c-0.136,0 -0.25,-0.046 -0.343,-0.139c-0.093,-0.093 -0.139,-0.207 -0.139,-0.343c0,-0.137 0.046,-0.252 0.139,-0.344c0.093,-0.092 0.207,-0.138 0.343,-0.138c0.134,0 0.248,0.046 0.341,0.138c0.093,0.092 0.139,0.207 0.139,0.344c0,0.136 -0.046,0.25 -0.139,0.343c-0.093,0.093 -0.206,0.139 -0.341,0.139Z" style="fill:#116843;fill-rule:nonzero;"/><path d="M311.56,63.253l0,0.753l-0.299,0c-0.293,0 -0.525,0.078 -0.694,0.235c-0.169,0.157 -0.254,0.395 -0.254,0.715l0,1.59l-0.807,0l0,-3.275l0.759,0l0.066,0.68l-0.075,0c0.044,-0.217 0.148,-0.395 0.31,-0.534c0.162,-0.139 0.375,-0.208 0.637,-0.208c0.058,0 0.116,0.003 0.173,0.009c0.058,0.006 0.119,0.017 0.185,0.034Z" style="fill:#116843;fill-rule:nonzero;"/><path d="M311.861,65.553l0.768,0c0.006,0.142 0.06,0.254 0.162,0.336c0.102,0.082 0.244,0.123 0.425,0.123c0.193,0 0.338,-0.036 0.437,-0.107c0.099,-0.071 0.149,-0.165 0.149,-0.282c0,-0.081 -0.026,-0.151 -0.077,-0.212c-0.052,-0.061 -0.152,-0.108 -0.301,-0.143l-0.589,-0.135c-0.295,-0.068 -0.515,-0.175 -0.66,-0.323c-0.145,-0.148 -0.218,-0.353 -0.218,-0.616c0,-0.214 0.056,-0.398 0.169,-0.551c0.112,-0.153 0.266,-0.27 0.462,-0.353c0.195,-0.082 0.419,-0.123 0.669,-0.123c0.246,0 0.462,0.044 0.648,0.131c0.186,0.088 0.331,0.211 0.435,0.37c0.105,0.159 0.158,0.347 0.159,0.563l-0.768,0c-0.003,-0.143 -0.048,-0.255 -0.136,-0.337c-0.088,-0.082 -0.212,-0.123 -0.37,-0.123c-0.158,0 -0.281,0.035 -0.369,0.105c-0.089,0.07 -0.133,0.165 -0.133,0.285c0,0.183 0.141,0.307 0.422,0.374l0.592,0.135c0.276,0.062 0.483,0.162 0.622,0.3c0.139,0.139 0.209,0.334 0.209,0.586c0,0.219 -0.058,0.409 -0.174,0.571c-0.116,0.162 -0.277,0.286 -0.484,0.372c-0.207,0.086 -0.446,0.129 -0.718,0.129c-0.408,0 -0.731,-0.099 -0.972,-0.297c-0.24,-0.198 -0.36,-0.458 -0.36,-0.78Z" style="fill:#116843;fill-rule:nonzero;"/><path d="M314.855,63.267l2.076,0l0,0.674l-2.076,0l0,-0.674Zm1.442,3.279l-0.807,0l0,-4.302l0.807,0l0,4.302Z" style="fill:#116843;fill-rule:nonzero;"/><path d="M317.787,66.628c-0.147,0 -0.273,-0.052 -0.379,-0.155c-0.106,-0.103 -0.158,-0.227 -0.158,-0.371c0,-0.148 0.053,-0.274 0.158,-0.377c0.106,-0.103 0.232,-0.155 0.379,-0.155c0.145,0 0.271,0.052 0.377,0.155c0.106,0.103 0.16,0.229 0.16,0.377c0,0.144 -0.053,0.267 -0.16,0.371c-0.106,0.103 -0.232,0.155 -0.377,0.155Z" style="fill:#116843;fill-rule:nonzero;"/></g></g><defs><linearGradient id="_Linear1" x1="0" y1="0" x2="1" y2="0" gradientUnits="userSpaceOnUse" gradientTransform="matrix(22.44,22.44,-22.44,22.44,41.675703,47.625368)"><stop offset="0" style="stop-color:#10b981;stop-opacity:1"/><stop offset="1" style="stop-color:#116843;stop-opacity:1"/></linearGradient></defs></svg>